<?xml version="1.0" ?><svg width="30px" height="30px" style="enable-background:new 0 0 32 32;" version="1.1" viewBox="0 0 32 32" xml:space="preserve" xmlns="http://www.w3.org/2000/svg" xmlns:xlink="http://www.w3.org/1999/xlink"><style type="text/css">
	.st0{fill:#222A30;}
	.st1{fill:none;stroke:#222A30;stroke-width:1.8761;stroke-linejoin:round;stroke-miterlimit:10;}
	.st2{fill:#171715;}
	.st3{fill-rule:evenodd;clip-rule:evenodd;fill:#222A30;}
</style><g id="Layer_1"/><g id="icons"><path class="st0" d="M16,13.3c-1.5,0-2.7,1.2-2.7,2.7c0,1.5,1.2,2.7,2.7,2.7c1.5,0,2.7-1.2,2.7-2.7   C18.7,14.5,17.5,13.3,16,13.3z M16,13.3c-1.5,0-2.7,1.2-2.7,2.7c0,1.5,1.2,2.7,2.7,2.7c1.5,0,2.7-1.2,2.7-2.7   C18.7,14.5,17.5,13.3,16,13.3z M20.6,8.8h-9.2c-1.5,0-2.7,1.2-2.7,2.7v9.2c0,1.5,1.2,2.7,2.7,2.7h9.2c1.5,0,2.7-1.2,2.7-2.7v-9.2   C23.2,10,22,8.8,20.6,8.8z M16,20.8c-2.6,0-4.8-2.1-4.8-4.8c0-2.6,2.1-4.8,4.8-4.8c2.6,0,4.8,2.1,4.8,4.8   C20.8,18.6,18.6,20.8,16,20.8z M20.9,12.2c-0.6,0-1.1-0.5-1.1-1.1c0-0.6,0.5-1.1,1.1-1.1c0.6,0,1.1,0.5,1.1,1.1   C22,11.7,21.5,12.2,20.9,12.2z M16,13.3c-1.5,0-2.7,1.2-2.7,2.7c0,1.5,1.2,2.7,2.7,2.7c1.5,0,2.7-1.2,2.7-2.7   C18.7,14.5,17.5,13.3,16,13.3z M20.6,8.8h-9.2c-1.5,0-2.7,1.2-2.7,2.7v9.2c0,1.5,1.2,2.7,2.7,2.7h9.2c1.5,0,2.7-1.2,2.7-2.7v-9.2   C23.2,10,22,8.8,20.6,8.8z M16,20.8c-2.6,0-4.8-2.1-4.8-4.8c0-2.6,2.1-4.8,4.8-4.8c2.6,0,4.8,2.1,4.8,4.8   C20.8,18.6,18.6,20.8,16,20.8z M20.9,12.2c-0.6,0-1.1-0.5-1.1-1.1c0-0.6,0.5-1.1,1.1-1.1c0.6,0,1.1,0.5,1.1,1.1   C22,11.7,21.5,12.2,20.9,12.2z M16,13.3c-1.5,0-2.7,1.2-2.7,2.7c0,1.5,1.2,2.7,2.7,2.7c1.5,0,2.7-1.2,2.7-2.7   C18.7,14.5,17.5,13.3,16,13.3z M2.2,16L2.2,16c0,7.6,6.2,13.8,13.8,13.8h0c7.6,0,13.8-6.2,13.8-13.8v0c0-7.6-6.2-13.8-13.8-13.8h0   C8.4,2.2,2.2,8.4,2.2,16z M25.2,20.6c0,2.6-2.1,4.7-4.7,4.7h-9.2c-2.6,0-4.7-2.1-4.7-4.7v-9.2c0-2.6,2.1-4.7,4.7-4.7h9.2   c2.6,0,4.7,2.1,4.7,4.7L25.2,20.6L25.2,20.6z M20.6,8.8h-9.2c-1.5,0-2.7,1.2-2.7,2.7v9.2c0,1.5,1.2,2.7,2.7,2.7h9.2   c1.5,0,2.7-1.2,2.7-2.7v-9.2C23.2,10,22,8.8,20.6,8.8z M16,20.8c-2.6,0-4.8-2.1-4.8-4.8c0-2.6,2.1-4.8,4.8-4.8   c2.6,0,4.8,2.1,4.8,4.8C20.8,18.6,18.6,20.8,16,20.8z M20.9,12.2c-0.6,0-1.1-0.5-1.1-1.1c0-0.6,0.5-1.1,1.1-1.1   c0.6,0,1.1,0.5,1.1,1.1C22,11.7,21.5,12.2,20.9,12.2z M16,13.3c-1.5,0-2.7,1.2-2.7,2.7c0,1.5,1.2,2.7,2.7,2.7   c1.5,0,2.7-1.2,2.7-2.7C18.7,14.5,17.5,13.3,16,13.3z M16,13.3c-1.5,0-2.7,1.2-2.7,2.7c0,1.5,1.2,2.7,2.7,2.7   c1.5,0,2.7-1.2,2.7-2.7C18.7,14.5,17.5,13.3,16,13.3z M16,13.3c-1.5,0-2.7,1.2-2.7,2.7c0,1.5,1.2,2.7,2.7,2.7   c1.5,0,2.7-1.2,2.7-2.7C18.7,14.5,17.5,13.3,16,13.3z M20.6,8.8h-9.2c-1.5,0-2.7,1.2-2.7,2.7v9.2c0,1.5,1.2,2.7,2.7,2.7h9.2   c1.5,0,2.7-1.2,2.7-2.7v-9.2C23.2,10,22,8.8,20.6,8.8z M16,20.8c-2.6,0-4.8-2.1-4.8-4.8c0-2.6,2.1-4.8,4.8-4.8   c2.6,0,4.8,2.1,4.8,4.8C20.8,18.6,18.6,20.8,16,20.8z M20.9,12.2c-0.6,0-1.1-0.5-1.1-1.1c0-0.6,0.5-1.1,1.1-1.1   c0.6,0,1.1,0.5,1.1,1.1C22,11.7,21.5,12.2,20.9,12.2z M16,13.3c-1.5,0-2.7,1.2-2.7,2.7c0,1.5,1.2,2.7,2.7,2.7   c1.5,0,2.7-1.2,2.7-2.7C18.7,14.5,17.5,13.3,16,13.3z M16,13.3c-1.5,0-2.7,1.2-2.7,2.7c0,1.5,1.2,2.7,2.7,2.7   c1.5,0,2.7-1.2,2.7-2.7C18.7,14.5,17.5,13.3,16,13.3z M16,13.3c-1.5,0-2.7,1.2-2.7,2.7c0,1.5,1.2,2.7,2.7,2.7   c1.5,0,2.7-1.2,2.7-2.7C18.7,14.5,17.5,13.3,16,13.3z M20.6,8.8h-9.2c-1.5,0-2.7,1.2-2.7,2.7v9.2c0,1.5,1.2,2.7,2.7,2.7h9.2   c1.5,0,2.7-1.2,2.7-2.7v-9.2C23.2,10,22,8.8,20.6,8.8z M16,20.8c-2.6,0-4.8-2.1-4.8-4.8c0-2.6,2.1-4.8,4.8-4.8   c2.6,0,4.8,2.1,4.8,4.8C20.8,18.6,18.6,20.8,16,20.8z M20.9,12.2c-0.6,0-1.1-0.5-1.1-1.1c0-0.6,0.5-1.1,1.1-1.1   c0.6,0,1.1,0.5,1.1,1.1C22,11.7,21.5,12.2,20.9,12.2z M16,13.3c-1.5,0-2.7,1.2-2.7,2.7c0,1.5,1.2,2.7,2.7,2.7   c1.5,0,2.7-1.2,2.7-2.7C18.7,14.5,17.5,13.3,16,13.3z" id="instagram"/></g></svg>
